<?xml version="1.0" encoding="utf-8"?>
<!-- Generator: Adobe Illustrator 16.0.0, SVG Export Plug-In . SVG Version: 6.00 Build 0)  -->
<!DOCTYPE svg PUBLIC "-//W3C//DTD SVG 1.1//EN" "http://www.w3.org/Graphics/SVG/1.1/DTD/svg11.dtd">
<svg version="1.1" id="Logo_1_" xmlns="http://www.w3.org/2000/svg" xmlns:xlink="http://www.w3.org/1999/xlink" x="0px" y="0px"
	 width="60px" height="60px" viewBox="0 0 60 60" enable-background="new 0 0 60 60" xml:space="preserve">
<g id="Logo">
	<g>
		<path fill="#F57D2D" d="M7.154,21.022C3.206,21.022,0,24.271,0,28.22c0,3.776,2.894,6.896,6.584,7.197
			c0.172,0,0.398,0.043,0.57,0.043h7.154v-7.197l0,0V28.22C14.309,24.271,11.103,21.022,7.154,21.022z M11.899,27.563
			c-0.086,0.312-0.258,0.527-0.527,0.657c-0.172,0.086-0.355,0.129-0.57,0.129c-0.129,0-0.258-0.043-0.398-0.086
			c-0.043,0-0.129,0-0.258,0c-0.312,0-0.699,0.086-1.226,0.312l0,0c-0.043,0.043-0.172,0.129-0.215,0.215l0,0l-0.398,1.41
			c0,0-0.043,0.172,0.043,0.312c0.441,0.612,0.785,0.968,1.097,1.054c0.312,0.043,0.57,0.216,0.743,0.483
			c0.129,0.216,0.172,0.527,0.086,0.786s-0.215,0.483-0.484,0.613c-0.129,0.086-0.312,0.129-0.484,0.129
			c-0.355,0-0.699-0.172-0.882-0.527c-0.172-0.258-0.172-0.612-0.043-0.882c0.086-0.258,0-0.785-0.312-1.496
			c0,0-0.043-0.129-0.172-0.172l-1.495-0.398H6.358c-0.086,0-0.172,0.043-0.172,0.043c-0.57,0.397-0.925,0.699-0.968,0.968
			c-0.043,0.258-0.172,0.484-0.398,0.613c-0.129,0.086-0.258,0.129-0.441,0.129c-0.312,0-0.57-0.172-0.743-0.441
			c-0.215-0.397-0.086-0.924,0.312-1.14c0.129-0.086,0.258-0.129,0.441-0.129c0.086,0,0.215,0,0.312,0.043
			c0.043,0,0.129,0.043,0.172,0.043c0.258,0,0.656-0.129,1.097-0.355c0.129-0.086,0.172-0.215,0.215-0.258l0.398-1.453
			c0.043-0.086-0.043-0.215-0.086-0.312c-0.613-0.839-1.097-1.312-1.495-1.409c-0.398-0.043-0.7-0.258-0.925-0.613
			c-0.172-0.312-0.215-0.656-0.129-0.968s0.312-0.613,0.57-0.785c0.172-0.129,0.398-0.172,0.613-0.172
			c0.441,0,0.882,0.258,1.097,0.656c0.172,0.355,0.215,0.742,0.086,1.098c-0.129,0.355,0,1.054,0.441,1.979
			c0,0,0.086,0.215,0.312,0.258l1.355,0.355c0.043,0,0.043,0,0.086,0c0.129,0,0.258-0.086,0.258-0.086l0,0
			c0.57-0.441,0.925-0.839,0.968-1.14c0.043-0.355,0.258-0.656,0.527-0.786c0.172-0.086,0.355-0.129,0.57-0.129
			c0.398,0,0.742,0.215,0.968,0.57C11.942,26.95,11.985,27.251,11.899,27.563z M22.076,25.982c-1.183,0-1.882,0.215-2.506,0.613
			v-3.421c0-0.172-0.129-0.355-0.355-0.355h-1.539c-0.172,0-0.355,0.129-0.355,0.355v12.027c0,0.173,0.129,0.355,0.355,0.355h1.539
			c0.172,0,0.355-0.172,0.355-0.355v-6.756c0.699-0.355,1.355-0.57,1.937-0.57c1.097,0,1.355,0.355,1.355,1.797v5.486
			c0,0.173,0.129,0.355,0.355,0.355h1.496c0.172,0,0.355-0.172,0.355-0.355v-5.486C25.067,27.649,24.357,25.982,22.076,25.982z
			 M34.373,26.294h-1.668c-0.172,0-0.312,0.129-0.354,0.258l-1.796,7.154c0,0,0,0-0.043,0h-0.087c-0.086,0-0.172-0.086-0.215-0.354
			l-1.668-6.8c-0.043-0.129-0.172-0.312-0.312-0.312h-1.668c-0.215,0-0.312,0.086-0.312,0.258c0,0.043,0,0.086,0,0.129l2.152,7.638
			c0.355,1.27,0.968,1.41,1.453,1.41h0.258l-0.172,0.483c-0.215,0.882-0.613,1.054-1.312,1.054c-0.484,0-1.41-0.086-1.883-0.086
			c0,0,0,0-0.043,0c-0.172,0-0.355,0.13-0.355,0.312v1.055c0,0.172,0.172,0.215,0.355,0.258c0.398,0.129,1.227,0.215,1.753,0.215
			c2.237,0,2.851-0.785,3.378-2.635l2.766-9.748c0-0.043,0-0.086,0-0.086C34.631,26.423,34.502,26.294,34.373,26.294z
			 M39.903,25.982c-1.055,0-2.28,0.172-3.335,0.441c-0.398,0.086-0.441,0.215-0.441,0.441v11.63c0,0.172,0.129,0.354,0.355,0.354
			h1.538c0.172,0,0.354-0.129,0.354-0.354v-2.948c0.613,0.086,1.184,0.13,1.582,0.13c2.679,0,3.948-1.582,3.948-4.175v-1.259
			C43.852,27.606,42.582,25.982,39.903,25.982z M41.699,31.469c0,1.355-0.354,2.367-1.753,2.367c-0.397,0-1.141-0.043-1.581-0.13
			v-5.788c0.312-0.086,1.011-0.129,1.581-0.129c1.409,0,1.753,1.011,1.753,2.367V31.469z M49.381,25.982
			c-2.549,0-3.947,1.625-3.947,4.26v1.227c0,3.292,2.366,4.174,3.99,4.174c1.496,0,2.152-0.086,3.207-0.258
			c0.312-0.043,0.354-0.172,0.354-0.441v-1.098c0-0.172-0.129-0.258-0.312-0.258h-0.043c-0.699,0.086-1.84,0.172-3.034,0.172
			c-1.581,0-1.979-1.141-1.979-2.108v-0.043h5.4c0.215,0,0.355-0.129,0.355-0.44v-0.926C53.33,27.735,51.932,25.982,49.381,25.982z
			 M51.092,30.016h-3.507V29.93c0-1.312,0.742-2.066,1.753-2.066c1.012,0,1.754,0.743,1.754,2.066V30.016z M59.656,25.982
			c-0.656,0-1.539,0.172-2.367,0.785v-0.355c0-0.172-0.129-0.355-0.355-0.355h-1.452c-0.173,0-0.354,0.129-0.354,0.355v8.736
			c0,0.172,0.129,0.354,0.354,0.354h1.538c0.172,0,0.355-0.172,0.355-0.354v-6.671c0.699-0.355,1.409-0.613,2.281-0.613
			c0.172,0,0.354-0.129,0.354-0.355v-1.183C59.957,26.154,59.828,25.982,59.656,25.982z"/>
	</g>
</g>
</svg>
